{
  "accessors": [
    {
      "bufferView": 2,
      "componentType": 5126,
      "count": 3094,
      "max": [
        12.552499771118164,
        -8.186200141906738,
        11.336000442504883
      ],
      "min": [
        -3.5929300785064697,
        -29.9822998046875,
        -4.624450206756592
      ],
      "type": "VEC3"
    },
    {
      "bufferView": 2,
      "byteOffset": 37128,
      "componentType": 5126,
      "count": 3094,
      "max": [
        -8.742275525719378e-08,
        1.0,
        0.0
      ],
      "min": [
        -8.742279788975793e-08,
        -0.9999495148658752,
        -0.010048694908618927
      ],
      "type": "VEC3"
    },
    {
      "bufferView": 1,
      "componentType": 5126,
      "count": 3094,
      "max": [
        0.0,
        0.0
      ],
      "min": [
        0.0,
        0.0
      ],
      "type": "VEC2"
    },
    {
      "bufferView": 0,
      "componentType": 5125,
      "count": 11625,
      "type": "SCALAR"
    },
    {
      "bufferView": 2,
      "byteOffset": 74256,
      "componentType": 5126,
      "count": 18754,
      "max": [
        14.366800308227539,
        -8.186220169067383,
        12.63599967956543
      ],
      "min": [
        -3.966370105743408,
        -29.982099533081055,
        -9.424559593200684
      ],
      "type": "VEC3"
    },
    {
      "bufferView": 2,
      "byteOffset": 299304,
      "componentType": 5126,
      "count": 18754,
      "max": [
        0.9999876618385315,
        0.9946214556694031,
        0.999991238117218
      ],
      "min": [
        -0.9999963641166687,
        -0.9999547600746155,
        -0.9999832510948181
      ],
      "type": "VEC3"
    },
    {
      "bufferView": 1,
      "byteOffset": 24752,
      "componentType": 5126,
      "count": 18754,
      "max": [
        0.9181089997291565,
        0.9977840185165405
      ],
      "min": [
        0.0020899400115013123,
        0.14028300344944
      ],
      "type": "VEC2"
    },
    {
      "bufferView": 0,
      "byteOffset": 46500,
      "componentType": 5125,
      "count": 103014,
      "type": "SCALAR"
    },
    {
      "bufferView": 2,
      "byteOffset": 524352,
      "componentType": 5126,
      "count": 2372,
      "max": [
        12.51729965209961,
        -8.186200141906738,
        11.509300231933594
      ],
      "min": [
        -3.5929300785064697,
        -29.982200622558594,
        -4.59814977645874
      ],
      "type": "VEC3"
    },
    {
      "bufferView": 2,
      "byteOffset": 552816,
      "componentType": 5126,
      "count": 2372,
      "max": [
        0.15770606696605682,
        1.0,
        0.0
      ],
      "min": [
        -8.742279788975793e-08,
        -0.9999495148658752,
        -0.36908790469169617
      ],
      "type": "VEC3"
    },
    {
      "bufferView": 1,
      "byteOffset": 174784,
      "componentType": 5126,
      "count": 2372,
      "max": [
        0.0,
        0.0
      ],
      "min": [
        0.0,
        0.0
      ],
      "type": "VEC2"
    },
    {
      "bufferView": 0,
      "byteOffset": 458556,
      "componentType": 5125,
      "count": 6594,
      "type": "SCALAR"
    },
    {
      "bufferView": 2,
      "byteOffset": 581280,
      "componentType": 5126,
      "count": 812,
      "max": [
        11.270299911499023,
        -10.674400329589844,
        12.761099815368652
      ],
      "min": [
        -2.153170108795166,
        -29.9822998046875,
        -4.465970039367676
      ],
      "type": "VEC3"
    },
    {
      "bufferView": 2,
      "byteOffset": 591024,
      "componentType": 5126,
      "count": 812,
      "max": [
        0.978401243686676,
        0.9998743534088135,
        0.9995853304862976
      ],
      "min": [
        -0.9932397603988647,
        -0.9375030994415283,
        -0.9307825565338135
      ],
      "type": "VEC3"
    },
    {
      "bufferView": 1,
      "byteOffset": 193760,
      "componentType": 5126,
      "count": 812,
      "max": [
        0.9613249897956848,
        0.9920330047607422
      ],
      "min": [
        0.003945980221033096,
        0.048408400267362595
      ],
      "type": "VEC2"
    },
    {
      "bufferView": 0,
      "byteOffset": 484932,
      "componentType": 5125,
      "count": 3639,
      "type": "SCALAR"
    }
  ],
  "asset": {
    "extras": {
      "author": "The British Museum (https://sketchfab.com/britishmuseum)",
      "license": "CC-BY-NC-SA-4.0 (http://creativecommons.org/licenses/by-nc-sa/4.0/)",
      "source": "https://sketchfab.com/3d-models/granite-head-of-amenemhat-iii-64d0b7662b59417986e9d693624de97a",
      "title": "Granite head of Amenemhat III"
    },
    "generator": "Sketchfab-14.84.0",
    "version": "2.0"
  },
  "bufferViews": [
    {
      "buffer": 0,
      "byteLength": 499488,
      "name": "floatBufferViews",
      "target": 34963
    },
    {
      "buffer": 0,
      "byteLength": 200256,
      "byteOffset": 499488,
      "byteStride": 8,
      "name": "floatBufferViews",
      "target": 34962
    },
    {
      "buffer": 0,
      "byteLength": 600768,
      "byteOffset": 699744,
      "byteStride": 12,
      "name": "floatBufferViews",
      "target": 34962
    }
  ],
  "buffers": [
    {
      "byteLength": 1300512,
      "uri": "scene.bin"
    }
  ],
  "extensionsUsed": [
    "KHR_materials_specular"
  ],
  "images": [
    {
      "uri": "textures/Texture_0_baseColor.jpeg"
    },
    {
      "uri": "textures/Texture_0_metallicRoughness.png"
    },
    {
      "uri": "textures/Texture_0_specularf0.png"
    },
    {
      "uri": "textures/Texture_1_baseColor.jpeg"
    },
    {
      "uri": "textures/Texture_1_metallicRoughness.png"
    },
    {
      "uri": "textures/Texture_1_specularf0.png"
    }
  ],
  "materials": [
    {
      "doubleSided": true,
      "extensions": {
        "KHR_materials_specular": {
          "specularColorFactor": [
            1.0,
            1.0,
            1.0
          ],
          "specularFactor": 0.5,
          "specularTexture": {
            "index": 2
          }
        }
      },
      "name": "Texture_0",
      "occlusionTexture": {
        "index": 1,
        "strength": 0.5
      },
      "pbrMetallicRoughness": {
        "baseColorTexture": {
          "index": 0
        },
        "metallicFactor": 0.0,
        "metallicRoughnessTexture": {
          "index": 1
        }
      }
    },
    {
      "doubleSided": true,
      "extensions": {
        "KHR_materials_specular": {
          "specularColorFactor": [
            1.0,
            1.0,
            1.0
          ],
          "specularFactor": 0.5,
          "specularTexture": {
            "index": 5
          }
        }
      },
      "name": "Texture_1",
      "occlusionTexture": {
        "index": 4,
        "strength": 0.5
      },
      "pbrMetallicRoughness": {
        "baseColorTexture": {
          "index": 3
        },
        "metallicFactor": 0.0,
        "metallicRoughnessTexture": {
          "index": 4
        }
      }
    }
  ],
  "meshes": [
    {
      "name": "Object_0",
      "primitives": [
        {
          "attributes": {
            "NORMAL": 1,
            "POSITION": 0,
            "TEXCOORD_0": 2
          },
          "indices": 3,
          "material": 0,
          "mode": 4
        }
      ]
    },
    {
      "name": "Object_1",
      "primitives": [
        {
          "attributes": {
            "NORMAL": 5,
            "POSITION": 4,
            "TEXCOORD_0": 6
          },
          "indices": 7,
          "material": 0,
          "mode": 4
        }
      ]
    },
    {
      "name": "Object_2",
      "primitives": [
        {
          "attributes": {
            "NORMAL": 9,
            "POSITION": 8,
            "TEXCOORD_0": 10
          },
          "indices": 11,
          "material": 1,
          "mode": 4
        }
      ]
    },
    {
      "name": "Object_3",
      "primitives": [
        {
          "attributes": {
            "NORMAL": 13,
            "POSITION": 12,
            "TEXCOORD_0": 14
          },
          "indices": 15,
          "material": 1,
          "mode": 4
        }
      ]
    }
  ],
  "nodes": [
    {
      "children": [
        1
      ],
      "matrix": [
        0.125,
        0.0,
        0.0,
        0.0,
        0.0,
        -0.125,
        -2.7755575615628914e-17,
        0.0,
        0.0,
        2.7755575615628914e-17,
        -0.125,
        0.0,
        0.0,
        0.0,
        0.0,
        1.0
      ],
      "name": "Sketchfab_model"
    },
    {
      "children": [
        2,
        3,
        4,
        5
      ],
      "name": "sculpt.obj.cleaner.materialmerger.gles"
    },
    {
      "mesh": 0,
      "name": "Object_2"
    },
    {
      "mesh": 1,
      "name": "Object_3"
    },
    {
      "mesh": 2,
      "name": "Object_4"
    },
    {
      "mesh": 3,
      "name": "Object_5"
    }
  ],
  "samplers": [
    {
      "magFilter": 9729,
      "minFilter": 9987,
      "wrapS": 10497,
      "wrapT": 10497
    }
  ],
  "scene": 0,
  "scenes": [
    {
      "name": "Sketchfab_Scene",
      "nodes": [
        0
      ]
    }
  ],
  "textures": [
    {
      "sampler": 0,
      "source": 0
    },
    {
      "sampler": 0,
      "source": 1
    },
    {
      "sampler": 0,
      "source": 2
    },
    {
      "sampler": 0,
      "source": 3
    },
    {
      "sampler": 0,
      "source": 4
    },
    {
      "sampler": 0,
      "source": 5
    }
  ]
}
